<?xml version="1.0" encoding="UTF-8" standalone="no"?>
<svg width="462px" height="462px" viewBox="0 0 462 462" version="1.1" xmlns="http://www.w3.org/2000/svg" xmlns:xlink="http://www.w3.org/1999/xlink" xmlns:sketch="http://www.bohemiancoding.com/sketch/ns">
    <!-- Generator: Sketch 3.2.2 (9983) - http://www.bohemiancoding.com/sketch -->
    <title>paint</title>
    <desc>Created with Sketch.</desc>
    <defs></defs>
    <g id="Page-1" stroke="none" stroke-width="1" fill="none" fill-rule="evenodd" sketch:type="MSPage">
        <g id="Oval-1-+-spray11" sketch:type="MSLayerGroup" transform="translate(0.000000, 1.000000)">
            <circle id="Oval-1" fill="#607D8B" sketch:type="MSShapeGroup" cx="231" cy="230" r="200"></circle>
            <g id="Group-+-Group-2" stroke-linecap="square" stroke="#FFFFFF" sketch:type="MSShapeGroup">
                <g id="Group" transform="translate(41.000000, 0.000000)">
                    <path d="M1.5,9.5 L1.5,452.5" id="Line"></path>
                    <path d="M21.5,9.5 L21.5,452.5" id="Line-2"></path>
                    <path d="M41.5,11.5 L41.5,454.5" id="Line-3"></path>
                    <path d="M60.7608696,10.5 L60.7608696,453.5" id="Line-4"></path>
                    <path d="M80.0217391,9.5 L80.0217391,452.5" id="Line-5"></path>
                    <path d="M99.2826087,10.5 L99.2826087,453.5" id="Line-6"></path>
                    <path d="M141.5,9.5 L141.5,452.5" id="Line-7"></path>
                    <path d="M119.543478,9.5 L119.543478,452.5" id="Line-8"></path>
                    <path d="M160.76087,3.5 L160.76087,446.5" id="Line-9"></path>
                    <path d="M180.021739,10.5 L180.021739,453.5" id="Line-10"></path>
                    <path d="M199.282609,6.5 L199.282609,449.5" id="Line-11"></path>
                    <path d="M218.543478,6.5 L218.543478,449.5" id="Line-12"></path>
                    <path d="M240.5,3.5 L240.5,446.5" id="Line-13"></path>
                    <path d="M259.76087,2.5 L259.76087,445.5" id="Line-14"></path>
                    <path d="M279.021739,13.5 L279.021739,456.5" id="Line-15"></path>
                    <path d="M298.282609,3.5 L298.282609,446.5" id="Line-16"></path>
                    <path d="M319.543478,0.5 L319.543478,443.5" id="Line-17"></path>
                    <path d="M160.76087,9.5 L160.76087,452.5" id="Line-18"></path>
                    <path d="M338.804348,16.5 L338.804348,459.5" id="Line-19"></path>
                    <path d="M358.065217,12.5 L358.065217,455.5" id="Line-20"></path>
                    <path d="M378.326087,10.5 L378.326087,453.5" id="Line-21"></path>
                </g>
                <g id="Group-2" transform="translate(231.000000, 230.000000) rotate(270.000000) translate(-231.000000, -230.000000) translate(41.000000, 0.000000)">
                    <path d="M1.5,9.5 L1.5,452.5" id="Line"></path>
                    <path d="M21.5,9.5 L21.5,452.5" id="Line-2"></path>
                    <path d="M41.5,11.5 L41.5,454.5" id="Line-3"></path>
                    <path d="M60.7608696,10.5 L60.7608696,453.5" id="Line-4"></path>
                    <path d="M80.0217391,9.5 L80.0217391,452.5" id="Line-5"></path>
                    <path d="M99.2826087,10.5 L99.2826087,453.5" id="Line-6"></path>
                    <path d="M141.5,9.5 L141.5,452.5" id="Line-7"></path>
                    <path d="M119.543478,9.5 L119.543478,452.5" id="Line-8"></path>
                    <path d="M160.76087,3.5 L160.76087,446.5" id="Line-9"></path>
                    <path d="M180.021739,10.5 L180.021739,453.5" id="Line-10"></path>
                    <path d="M199.282609,6.5 L199.282609,449.5" id="Line-11"></path>
                    <path d="M218.543478,6.5 L218.543478,449.5" id="Line-12"></path>
                    <path d="M240.5,3.5 L240.5,446.5" id="Line-13"></path>
                    <path d="M259.76087,2.5 L259.76087,445.5" id="Line-14"></path>
                    <path d="M279.021739,13.5 L279.021739,456.5" id="Line-15"></path>
                    <path d="M298.282609,3.5 L298.282609,446.5" id="Line-16"></path>
                    <path d="M319.543478,0.5 L319.543478,443.5" id="Line-17"></path>
                    <path d="M160.76087,9.5 L160.76087,452.5" id="Line-18"></path>
                    <path d="M338.804348,16.5 L338.804348,459.5" id="Line-19"></path>
                    <path d="M358.065217,12.5 L358.065217,455.5" id="Line-20"></path>
                    <path d="M378.326087,10.5 L378.326087,453.5" id="Line-21"></path>
                </g>
            </g>
            <g id="spray11" transform="translate(137.000000, 121.767068)" fill="#FFFFFF" sketch:type="MSShapeGroup">
                <g id="Group" transform="translate(0.797211, 0.000000)">
                    <rect id="Rectangle-path" x="0.797210661" y="207.704572" width="56.73367" height="9.06047247"></rect>
                    <path d="M0.797210661,204.723698 L57.5308806,204.723698 L57.5308806,57.3367772 L0.797210661,57.3367772 L0.797210661,204.723698 L0.797210661,204.723698 Z M7.80573221,67.707448 L14.9806282,67.707448 L14.9806282,195.8296 L7.80573221,195.8296 L7.80573221,67.707448 L7.80573221,67.707448 Z" id="Shape"></path>
                    <path d="M0.797210661,0 L0.797210661,53.6418791 L57.5308806,53.6418791 L57.5308806,0 L0.797210661,0 L0.797210661,0 Z M14.9806282,51.0700082 L7.80573221,51.0700082 L7.80573221,2.99473918 L14.9806282,2.99473918 L14.9806282,51.0700082 L14.9806282,51.0700082 Z" id="Shape"></path>
                </g>
                <g id="Group" transform="translate(73.308719, 24.782853)">
                    <path d="M68.0124678,139.98326 L68.0124678,193.625139 L124.75307,193.625139 L124.75307,139.98326 L68.0124678,139.98326 L68.0124678,139.98326 Z M82.188953,191.0602 L75.0279216,191.0602 L75.0279216,142.977999 L82.188953,142.977999 L82.188953,191.0602 L82.188953,191.0602 Z" id="Shape"></path>
                    <g>
                        <rect id="Rectangle-path" x="0.110916266" y="183.095026" width="56.7267377" height="9.0535402"></rect>
                        <path d="M51.3611634,32.7272307 L51.3611634,20.6096286 L48.2485756,20.6096286 L48.2485756,16.6513044 L38.8137608,16.6513044 L38.8137608,0.395139197 L20.9701065,0.38820693 L20.9701065,16.6513044 L10.2458901,16.6513044 L10.2458901,20.6096286 L6.88374075,20.6096286 L6.88374075,32.734163 L0.117848532,32.734163 L0.117848532,180.114151 L56.8445863,180.114151 L56.8445863,32.7272307 L51.3611634,32.7272307 L51.3611634,32.7272307 Z M14.2943338,171.220053 L7.11250555,171.220053 L7.11250555,43.084037 L14.2943338,43.084037 L14.2943338,171.220053 L14.2943338,171.220053 Z M30.0375112,12.6999124 C27.7290665,12.6999124 25.8573545,10.8282005 25.8573545,8.51975567 C25.8573545,6.21131089 27.7290665,4.3395989 30.0375112,4.3395989 C32.345956,4.3395989 34.217668,6.21131089 34.217668,8.51975567 C34.217668,10.8282005 32.345956,12.6999124 30.0375112,12.6999124 L30.0375112,12.6999124 Z" id="Shape"></path>
                    </g>
                    <ellipse id="Oval" cx="30.0375112" cy="8.52668794" rx="1.70533759" ry="1.70533759"></ellipse>
                </g>
            </g>
        </g>
    </g>
</svg>