<?xml version="1.0" encoding="UTF-8" standalone="no"?>
<svg width="400px" height="400px" viewBox="0 0 400 400" version="1.1" xmlns="http://www.w3.org/2000/svg" xmlns:xlink="http://www.w3.org/1999/xlink" xmlns:sketch="http://www.bohemiancoding.com/sketch/ns">
    <!-- Generator: Sketch 3.2.2 (9983) - http://www.bohemiancoding.com/sketch -->
    <title>paint</title>
    <desc>Created with Sketch.</desc>
    <defs></defs>
    <g id="Page-1" stroke="none" stroke-width="1" fill="none" fill-rule="evenodd" sketch:type="MSPage">
        <g id="Oval-1-+-spray11" sketch:type="MSLayerGroup">
            <circle id="Oval-1" fill="#607D8B" sketch:type="MSShapeGroup" cx="200" cy="200" r="200"></circle>
            <g id="spray11" transform="translate(76.260870, 60.869565)" fill="#FFFFFF" sketch:type="MSShapeGroup">
                <g id="Group" transform="translate(1.000000, 0.000000)">
                    <rect id="Rectangle-path" x="1" y="260.53913" width="71.1652174" height="11.3652174"></rect>
                    <path d="M1,256.8 L72.1652174,256.8 L72.1652174,71.9217391 L1,71.9217391 L1,256.8 L1,256.8 Z M9.79130435,84.9304348 L18.7913043,84.9304348 L18.7913043,245.643478 L9.79130435,245.643478 L9.79130435,84.9304348 L9.79130435,84.9304348 Z" id="Shape"></path>
                    <path d="M1,0 L1,67.2869565 L72.1652174,67.2869565 L72.1652174,0 L1,0 L1,0 Z M18.7913043,64.0608696 L9.79130435,64.0608696 L9.79130435,3.75652174 L18.7913043,3.75652174 L18.7913043,64.0608696 L18.7913043,64.0608696 Z" id="Shape"></path>
                </g>
                <g id="Group" transform="translate(91.956522, 31.086957)">
                    <path d="M85.3130435,175.591304 L85.3130435,242.878261 L156.486957,242.878261 L156.486957,175.591304 L85.3130435,175.591304 L85.3130435,175.591304 Z M103.095652,239.66087 L94.1130435,239.66087 L94.1130435,179.347826 L103.095652,179.347826 L103.095652,239.66087 L103.095652,239.66087 Z" id="Shape"></path>
                    <g>
                        <rect id="Rectangle-path" x="0.139130435" y="229.669565" width="71.1565217" height="11.3565217"></rect>
                        <path d="M64.426087,41.0521739 L64.426087,25.8521739 L60.5217391,25.8521739 L60.5217391,20.8869565 L48.6869565,20.8869565 L48.6869565,0.495652174 L26.3043478,0.486956522 L26.3043478,20.8869565 L12.8521739,20.8869565 L12.8521739,25.8521739 L8.63478261,25.8521739 L8.63478261,41.0608696 L0.147826087,41.0608696 L0.147826087,225.930435 L71.3043478,225.930435 L71.3043478,41.0521739 L64.426087,41.0521739 L64.426087,41.0521739 Z M17.9304348,214.773913 L8.92173913,214.773913 L8.92173913,54.0434783 L17.9304348,54.0434783 L17.9304348,214.773913 L17.9304348,214.773913 Z M37.6782609,15.9304348 C34.7826087,15.9304348 32.4347826,13.5826087 32.4347826,10.6869565 C32.4347826,7.79130435 34.7826087,5.44347826 37.6782609,5.44347826 C40.573913,5.44347826 42.9217391,7.79130435 42.9217391,10.6869565 C42.9217391,13.5826087 40.573913,15.9304348 37.6782609,15.9304348 L37.6782609,15.9304348 Z" id="Shape"></path>
                    </g>
                    <circle id="Oval" cx="37.6782609" cy="10.6956522" r="2.13913043"></circle>
                </g>
            </g>
        </g>
    </g>
</svg>