<?xml version="1.0" encoding="UTF-8" standalone="no"?>
<svg width="400px" height="400px" viewBox="0 0 400 400" version="1.1" xmlns="http://www.w3.org/2000/svg" xmlns:xlink="http://www.w3.org/1999/xlink" xmlns:sketch="http://www.bohemiancoding.com/sketch/ns">
    <!-- Generator: Sketch 3.2.2 (9983) - http://www.bohemiancoding.com/sketch -->
    <title>tools</title>
    <desc>Created with Sketch.</desc>
    <defs></defs>
    <g id="Page-1" stroke="none" stroke-width="1" fill="none" fill-rule="evenodd" sketch:type="MSPage">
        <g id="Oval-1-+-screwdriver1" sketch:type="MSLayerGroup">
            <circle id="Oval-1" fill="#607D8B" sketch:type="MSShapeGroup" cx="200" cy="200" r="200"></circle>
            <g id="screwdriver1" transform="translate(54.545455, 72.636364)" fill="#FFFFFF" sketch:type="MSShapeGroup">
                <path d="M286.363636,32.1363636 L260.618182,6.35454545 C257.027273,2.79090909 251.245455,2.79090909 247.654545,6.35454545 C245.590909,8.44545455 244.845455,11.2909091 245.236364,14.0090909 C243.3,14.0090909 241.418182,14.7636364 239.763636,15.9818182 L239.581818,15.7909091 L172.854545,82.4909091 C173.490909,88.3545455 172.072727,94.3363636 168.681818,99.4272727 L175.709091,106.536364 L175.872727,106.363636 L176.545455,107.054545 L161.827273,121.754545 L113.481818,73.4545455 C118.918182,54.0090909 114,32.2636364 98.7272727,16.9636364 C83.5181818,1.82727273 62.0363636,-3.13636364 42.7,2.11818182 L75.4545455,34.8454545 L66.8454545,66.9272727 L34.7454545,75.5181818 L2.01818182,42.7818182 C-3.21818182,62.1090909 1.73636364,83.5909091 16.9181818,98.7909091 C32.8454545,114.718182 55.7636364,119.390909 75.8272727,112.863636 L75.9909091,113.036364 L123.309091,160.318182 L78.3,205.327273 L75.8454545,202.927273 L63.2363636,213.1 L41.9272727,246.7 L47.3636364,252.145455 L80.9545455,230.845455 L91.1818182,218.2 L88.7454545,215.790909 L133.754545,170.781818 L210.709091,247.736364 C216.036364,253.063636 223.045455,255.754545 230.009091,255.754545 C237.009091,255.754545 243.963636,253.063636 249.327273,247.736364 C259.963636,237.118182 259.963636,219.845455 249.327273,209.145455 L172.318182,132.218182 L186.754545,117.763636 L193.072727,124.190909 C198.218182,120.690909 204.254545,119.2 210.209091,119.845455 L276.009091,54.0636364 L276.954545,53.1454545 L276.763636,52.9545455 C278.009091,51.3 278.718182,49.4090909 278.718182,47.4909091 C281.454545,47.8545455 284.272727,47.1363636 286.354545,45.0363636 C289.927273,41.5 289.927273,35.7090909 286.363636,32.1363636 L286.363636,32.1363636 Z M232.363636,222.327273 C238.154545,222.327273 242.8,226.972727 242.8,232.745455 C242.8,238.490909 238.145455,243.172727 232.363636,243.172727 C226.627273,243.172727 221.972727,238.481818 221.972727,232.745455 C221.972727,226.972727 226.627273,222.327273 232.363636,222.327273 L232.363636,222.327273 Z M194.990909,86.1272727 L190.672727,81.8181818 L240.136364,32.3818182 L244.418182,36.6909091 L194.990909,86.1272727 L194.990909,86.1272727 Z M211.090909,102.254545 L206.790909,97.9545455 L256.236364,48.5090909 L260.536364,52.8090909 L211.090909,102.254545 L211.090909,102.254545 Z" id="Shape"></path>
            </g>
        </g>
    </g>
</svg>