<?xml version="1.0" encoding="UTF-8" standalone="no"?>
<svg width="462px" height="462px" viewBox="0 0 462 462" version="1.1" xmlns="http://www.w3.org/2000/svg" xmlns:xlink="http://www.w3.org/1999/xlink" xmlns:sketch="http://www.bohemiancoding.com/sketch/ns">
    <!-- Generator: Sketch 3.2.2 (9983) - http://www.bohemiancoding.com/sketch -->
    <title>tools</title>
    <desc>Created with Sketch.</desc>
    <defs></defs>
    <g id="Page-1" stroke="none" stroke-width="1" fill="none" fill-rule="evenodd" sketch:type="MSPage">
        <circle id="Oval-1" fill="#607D8B" sketch:type="MSShapeGroup" cx="231" cy="231" r="200"></circle>
        <g id="Oval-1-+-screwdriver1" sketch:type="MSLayerGroup" transform="translate(120.000000, 126.000000)" fill="#FFFFFF">
            <g id="screwdriver1" transform="translate(0.545455, 0.791850)" sketch:type="MSShapeGroup">
                <path d="M234.326589,22.6433172 L212.180655,0.466104303 C209.091798,-2.59929325 204.118347,-2.59929325 201.02949,0.466104303 C199.254374,2.2646794 198.613143,4.7123055 198.949399,7.05045312 C197.283762,7.05045312 195.665044,7.69950413 194.241824,8.74736962 L194.085426,8.5831519 L136.687421,65.9576973 C137.234813,71.0015275 136.01491,76.1470162 133.098091,80.5261556 L139.142867,86.6413109 L139.283625,86.492733 L139.862297,87.0870447 L127.201892,99.7318096 L85.6157082,58.184725 C90.2920034,41.4579766 86.061442,22.7527957 72.9240239,9.59191793 C59.8413451,-3.42820177 41.362941,-7.69786264 24.7300313,-3.17796523 L52.9051012,24.9736449 L45.4996637,52.5700427 L17.8876261,59.9598404 L-10.263984,31.8004104 C-14.7682417,48.4255001 -10.5064007,66.9039042 2.55281847,79.9787632 C16.2532687,93.6792135 35.9672157,97.6986378 53.2257167,92.0839555 L53.3664748,92.2325335 L94.0690111,132.90379 L55.3527273,171.620074 L53.2413565,169.555623 L42.3951667,178.306082 L24.0653406,207.208401 L28.7416358,211.892516 L57.6361357,193.57051 L66.4335138,182.693041 L64.3377828,180.620769 L103.054067,141.904486 L169.24945,208.099869 C173.831907,212.682325 179.861043,214.997013 185.85108,214.997013 C191.872397,214.997013 197.854614,212.682325 202.46835,208.099869 C211.617623,198.966235 211.617623,184.108441 202.46835,174.904429 L136.226047,108.732505 L148.644035,96.2988772 L154.07886,101.827541 C158.504919,98.8168823 163.697327,97.5344201 168.819356,98.0896324 L225.419732,41.504896 L226.233001,40.7150869 L226.068783,40.5508692 C227.140108,39.1276489 227.75006,37.5011114 227.75006,35.8511143 C230.103847,36.1639099 232.528014,35.5461385 234.318769,33.7397435 C237.391986,30.6978056 237.391986,25.7165346 234.326589,22.6433172 L234.326589,22.6433172 Z M187.876432,186.243272 C192.857703,186.243272 196.853668,190.239236 196.853668,195.204867 C196.853668,200.147039 192.849883,204.174283 187.876432,204.174283 C182.94208,204.174283 178.938296,200.139219 178.938296,195.204867 C178.938296,190.239236 182.94208,186.243272 187.876432,186.243272 L187.876432,186.243272 Z M155.728857,69.085654 L152.014409,65.3790254 L194.562439,22.8544543 L198.245608,26.5610829 L155.728857,69.085654 L155.728857,69.085654 Z M169.577885,82.9581419 L165.879077,79.2593331 L208.411468,36.7269421 L212.110276,40.4257509 L169.577885,82.9581419 L169.577885,82.9581419 Z" id="Shape"></path>
            </g>
        </g>
        <g id="Group-+-Group-2" sketch:type="MSLayerGroup" transform="translate(0.000000, 1.000000)" stroke-linecap="square" stroke="#FFFFFF">
            <g id="Group" transform="translate(41.000000, 0.000000)" sketch:type="MSShapeGroup">
                <path d="M1.5,9.5 L1.5,452.5" id="Line"></path>
                <path d="M21.5,9.5 L21.5,452.5" id="Line-2"></path>
                <path d="M41.5,11.5 L41.5,454.5" id="Line-3"></path>
                <path d="M60.7608696,10.5 L60.7608696,453.5" id="Line-4"></path>
                <path d="M80.0217391,9.5 L80.0217391,452.5" id="Line-5"></path>
                <path d="M99.2826087,10.5 L99.2826087,453.5" id="Line-6"></path>
                <path d="M141.5,9.5 L141.5,452.5" id="Line-7"></path>
                <path d="M119.543478,9.5 L119.543478,452.5" id="Line-8"></path>
                <path d="M160.76087,3.5 L160.76087,446.5" id="Line-9"></path>
                <path d="M180.021739,10.5 L180.021739,453.5" id="Line-10"></path>
                <path d="M199.282609,6.5 L199.282609,449.5" id="Line-11"></path>
                <path d="M218.543478,6.5 L218.543478,449.5" id="Line-12"></path>
                <path d="M240.5,3.5 L240.5,446.5" id="Line-13"></path>
                <path d="M259.76087,2.5 L259.76087,445.5" id="Line-14"></path>
                <path d="M279.021739,13.5 L279.021739,456.5" id="Line-15"></path>
                <path d="M298.282609,3.5 L298.282609,446.5" id="Line-16"></path>
                <path d="M319.543478,0.5 L319.543478,443.5" id="Line-17"></path>
                <path d="M160.76087,9.5 L160.76087,452.5" id="Line-18"></path>
                <path d="M338.804348,16.5 L338.804348,459.5" id="Line-19"></path>
                <path d="M358.065217,12.5 L358.065217,455.5" id="Line-20"></path>
                <path d="M378.326087,10.5 L378.326087,453.5" id="Line-21"></path>
            </g>
            <g id="Group-2" transform="translate(231.000000, 230.000000) rotate(270.000000) translate(-231.000000, -230.000000) translate(41.000000, 0.000000)" sketch:type="MSShapeGroup">
                <path d="M1.5,9.5 L1.5,452.5" id="Line"></path>
                <path d="M21.5,9.5 L21.5,452.5" id="Line-2"></path>
                <path d="M41.5,11.5 L41.5,454.5" id="Line-3"></path>
                <path d="M60.7608696,10.5 L60.7608696,453.5" id="Line-4"></path>
                <path d="M80.0217391,9.5 L80.0217391,452.5" id="Line-5"></path>
                <path d="M99.2826087,10.5 L99.2826087,453.5" id="Line-6"></path>
                <path d="M141.5,9.5 L141.5,452.5" id="Line-7"></path>
                <path d="M119.543478,9.5 L119.543478,452.5" id="Line-8"></path>
                <path d="M160.76087,3.5 L160.76087,446.5" id="Line-9"></path>
                <path d="M180.021739,10.5 L180.021739,453.5" id="Line-10"></path>
                <path d="M199.282609,6.5 L199.282609,449.5" id="Line-11"></path>
                <path d="M218.543478,6.5 L218.543478,449.5" id="Line-12"></path>
                <path d="M240.5,3.5 L240.5,446.5" id="Line-13"></path>
                <path d="M259.76087,2.5 L259.76087,445.5" id="Line-14"></path>
                <path d="M279.021739,13.5 L279.021739,456.5" id="Line-15"></path>
                <path d="M298.282609,3.5 L298.282609,446.5" id="Line-16"></path>
                <path d="M319.543478,0.5 L319.543478,443.5" id="Line-17"></path>
                <path d="M160.76087,9.5 L160.76087,452.5" id="Line-18"></path>
                <path d="M338.804348,16.5 L338.804348,459.5" id="Line-19"></path>
                <path d="M358.065217,12.5 L358.065217,455.5" id="Line-20"></path>
                <path d="M378.326087,10.5 L378.326087,453.5" id="Line-21"></path>
            </g>
        </g>
    </g>
</svg>