<?xml version="1.0" encoding="UTF-8" standalone="no"?>
<svg width="400px" height="400px" viewBox="0 0 400 400" version="1.1" xmlns="http://www.w3.org/2000/svg" xmlns:xlink="http://www.w3.org/1999/xlink" xmlns:sketch="http://www.bohemiancoding.com/sketch/ns">
    <!-- Generator: Sketch 3.2.2 (9983) - http://www.bohemiancoding.com/sketch -->
    <title>vehicle</title>
    <desc>Created with Sketch.</desc>
    <defs></defs>
    <g id="Page-1" stroke="none" stroke-width="1" fill="none" fill-rule="evenodd" sketch:type="MSPage">
        <g id="Oval-1-+-vehicle18" sketch:type="MSLayerGroup">
            <circle id="Oval-1" fill="#607D8B" sketch:type="MSShapeGroup" cx="200" cy="200" r="200"></circle>
            <g id="vehicle18" transform="translate(63.573770, 59.016393)" fill="#FFFFFF" sketch:type="MSShapeGroup">
                <g id="Group" transform="translate(1.000000, 0.000000)">
                    <path d="M266.770492,108.859016 C265.085246,94.0196721 225.131148,108.859016 225.131148,108.859016 L222.777049,129.97377 C221.904918,129.47541 221.019672,128.990164 220.088525,128.577049 L209.996721,84.5442623 C206.298361,63.5803279 190.47541,48.1377049 167.413115,48.9311475 L108.154098,48.9311475 C107.793443,51.3901639 107.216393,53.7704918 106.501639,56.0983607 L171.413115,56.0983607 C184.87541,56.0983607 197.209836,64.7606557 200.580328,79.0622951 L211.419672,122.537705 C210.737705,122.518033 210.062295,122.452459 209.37377,122.452459 L83.695082,122.452459 L83.7278689,164.832787 L161.583607,164.832787 L161.583607,174.308197 L83.7344262,174.308197 L83.7409836,177.07541 L160.796721,177.07541 L160.796721,186.570492 L83.7409836,186.570492 L83.7672131,222.177049 L166.895082,222.177049 L166.895082,244.727869 C166.895082,253.888525 178.232787,261.331148 192.206557,261.331148 C206.180328,261.331148 217.498361,253.895082 217.498361,244.727869 L217.498361,219.567213 C229.439344,215.055738 237.754098,205.186885 237.754098,193.704918 L237.754098,153.357377 C237.754098,144.439344 232.718033,136.498361 224.921311,131.285246 L266.770492,129.022951 C266.770492,129.022951 268.44918,123.685246 266.770492,108.859016 L266.770492,108.859016 Z M218.829508,185.862295 L173.15082,185.862295 L173.15082,164.144262 L218.829508,164.144262 L218.829508,185.862295 L218.829508,185.862295 Z" id="Shape"></path>
                    <rect id="Rectangle-path" x="82.5803279" y="177.068852" width="1.16065574" height="9.49508197"></rect>
                    <rect id="Rectangle-path" x="83.3737705" y="164.832787" width="0.360655738" height="9.47540984"></rect>
                    <path d="M99.1639344,42.5442623 C99.1245902,24.3278689 89.2229508,8.45901639 74.4754098,4.26325641e-14 L74.4754098,39.2983607 L50.0754098,53.3836066 L25.6557377,39.252459 L25.6557377,4.26325641e-14 C10.9344262,8.45901639 1.01311475,24.3278689 1,42.5442623 C1,61.6459016 11.9508197,78.1967213 27.9114754,86.3213115 L27.9114754,86.5311475 L27.9114754,248.163934 C27.9114754,254.563934 30.4885246,260.354098 34.6852459,264.557377 C38.8754098,268.754098 44.6590164,271.304918 51.0721311,271.331148 C63.8196721,271.331148 74.1803279,260.983607 74.2262295,248.170492 L74.1278689,85.2918033 C89.0721311,76.8852459 99.1442623,60.8721311 99.1639344,42.5442623 L99.1639344,42.5442623 Z M56.1737705,258.419672 C52.7245902,261.881967 47.1114754,261.881967 43.6360656,258.413115 C40.2131148,254.977049 40.2196721,249.390164 43.6688525,245.927869 C47.1377049,242.478689 52.7311475,242.478689 56.1540984,245.901639 C59.6229508,249.370492 59.6295082,254.963934 56.1737705,258.419672 L56.1737705,258.419672 Z" id="Shape"></path>
                </g>
            </g>
        </g>
    </g>
</svg>