<?xml version="1.0" encoding="UTF-8" standalone="no"?>
<svg width="462px" height="462px" viewBox="0 0 462 462" version="1.1" xmlns="http://www.w3.org/2000/svg" xmlns:xlink="http://www.w3.org/1999/xlink" xmlns:sketch="http://www.bohemiancoding.com/sketch/ns">
    <!-- Generator: Sketch 3.2.2 (9983) - http://www.bohemiancoding.com/sketch -->
    <title>vehicle</title>
    <desc>Created with Sketch.</desc>
    <defs></defs>
    <g id="Page-1" stroke="none" stroke-width="1" fill="none" fill-rule="evenodd" sketch:type="MSPage">
        <g id="Oval-1-+-vehicle18" sketch:type="MSLayerGroup" transform="translate(31.000000, 31.000000)">
            <circle id="Oval-1" fill="#607D8B" sketch:type="MSShapeGroup" cx="200" cy="200" r="200"></circle>
            <path d="M308.398131,179.845406 C307.038637,167.874447 274.807504,179.845406 274.807504,179.845406 L272.908443,196.878763 C272.204891,196.476734 271.49076,196.085284 270.739599,195.752023 L262.598501,160.230595 C259.615018,143.318904 246.85058,130.861278 228.246133,131.501351 L180.441645,131.501351 C180.150702,133.48505 179.685194,135.40527 179.108599,137.283171 L231.472949,137.283171 C242.333037,137.283171 252.283269,144.27108 255.002258,155.80827 L263.746401,190.880059 C263.196255,190.86419 262.651399,190.811291 262.095964,190.811291 L160.710457,190.811291 L160.736907,224.999673 L223.543445,224.999673 L223.543445,232.643524 L160.742196,232.643524 L160.747486,234.875846 L222.908662,234.875846 L222.908662,242.535567 L160.747486,242.535567 L160.768646,271.259521 L227.828234,271.259521 L227.828234,289.451359 C227.828234,296.841297 236.974406,302.845291 248.247104,302.845291 C259.519801,302.845291 268.650104,296.846587 268.650104,289.451359 L268.650104,269.154156 C278.282943,265.514731 284.990489,257.553487 284.990489,248.290938 L284.990489,215.742413 C284.990489,208.5482 280.927875,202.142177 274.638228,197.936736 L308.398131,196.111733 C308.398131,196.111733 309.752336,191.805785 308.398131,179.845406 L308.398131,179.845406 Z M269.723946,241.964262 L232.874763,241.964262 L232.874763,224.444237 L269.723946,224.444237 L269.723946,241.964262 Z M159.811181,234.870556 L160.747486,234.870556 L160.747486,242.530278 L159.811181,242.530278 L159.811181,234.870556 Z M160.451254,224.999673 L160.742196,224.999673 L160.742196,232.643524 L160.451254,232.643524 L160.451254,224.999673 Z M173.189243,126.349025 C173.157504,111.653787 165.169811,98.8523195 153.27291,92.0283967 L153.27291,123.730543 L133.589332,135.093168 L113.889883,123.693514 L113.889883,92.0283967 C102.014142,98.8523195 94.0105797,111.653787 94,126.349025 C94,141.758395 102.834071,155.110008 115.709596,161.664148 L115.709596,161.833424 L115.709596,292.223247 C115.709596,297.386153 117.788512,302.057101 121.174024,305.447903 C124.554246,308.833415 129.219905,310.891172 134.393391,310.912331 C144.676884,310.912331 153.034867,302.564928 153.071896,292.228537 L152.992548,160.83364 C165.048145,154.052036 173.173374,141.134191 173.189243,126.349025 Z M138.508904,300.496592 C135.726436,303.289639 131.198314,303.289639 128.394687,300.491302 C125.633378,297.719414 125.638668,293.212451 128.421136,290.419404 C131.219473,287.636936 135.731726,287.636936 138.493034,290.398244 C141.291372,293.196582 141.296662,297.708834 138.508904,300.496592 L138.508904,300.496592 Z" id="Shape" fill="#FFFFFF" sketch:type="MSShapeGroup"></path>
        </g>
        <g id="Group-+-Group-2" sketch:type="MSLayerGroup" transform="translate(0.000000, 1.000000)" stroke-linecap="square" stroke="#FFFFFF">
            <g id="Group" transform="translate(41.000000, 0.000000)" sketch:type="MSShapeGroup">
                <path d="M1.5,9.5 L1.5,452.5" id="Line"></path>
                <path d="M21.5,9.5 L21.5,452.5" id="Line-2"></path>
                <path d="M41.5,11.5 L41.5,454.5" id="Line-3"></path>
                <path d="M60.7608696,10.5 L60.7608696,453.5" id="Line-4"></path>
                <path d="M80.0217391,9.5 L80.0217391,452.5" id="Line-5"></path>
                <path d="M99.2826087,10.5 L99.2826087,453.5" id="Line-6"></path>
                <path d="M141.5,9.5 L141.5,452.5" id="Line-7"></path>
                <path d="M119.543478,9.5 L119.543478,452.5" id="Line-8"></path>
                <path d="M160.76087,3.5 L160.76087,446.5" id="Line-9"></path>
                <path d="M180.021739,10.5 L180.021739,453.5" id="Line-10"></path>
                <path d="M199.282609,6.5 L199.282609,449.5" id="Line-11"></path>
                <path d="M218.543478,6.5 L218.543478,449.5" id="Line-12"></path>
                <path d="M240.5,3.5 L240.5,446.5" id="Line-13"></path>
                <path d="M259.76087,2.5 L259.76087,445.5" id="Line-14"></path>
                <path d="M279.021739,13.5 L279.021739,456.5" id="Line-15"></path>
                <path d="M298.282609,3.5 L298.282609,446.5" id="Line-16"></path>
                <path d="M319.543478,0.5 L319.543478,443.5" id="Line-17"></path>
                <path d="M160.76087,9.5 L160.76087,452.5" id="Line-18"></path>
                <path d="M338.804348,16.5 L338.804348,459.5" id="Line-19"></path>
                <path d="M358.065217,12.5 L358.065217,455.5" id="Line-20"></path>
                <path d="M378.326087,10.5 L378.326087,453.5" id="Line-21"></path>
            </g>
            <g id="Group-2" transform="translate(231.000000, 230.000000) rotate(270.000000) translate(-231.000000, -230.000000) translate(41.000000, 0.000000)" sketch:type="MSShapeGroup">
                <path d="M1.5,9.5 L1.5,452.5" id="Line"></path>
                <path d="M21.5,9.5 L21.5,452.5" id="Line-2"></path>
                <path d="M41.5,11.5 L41.5,454.5" id="Line-3"></path>
                <path d="M60.7608696,10.5 L60.7608696,453.5" id="Line-4"></path>
                <path d="M80.0217391,9.5 L80.0217391,452.5" id="Line-5"></path>
                <path d="M99.2826087,10.5 L99.2826087,453.5" id="Line-6"></path>
                <path d="M141.5,9.5 L141.5,452.5" id="Line-7"></path>
                <path d="M119.543478,9.5 L119.543478,452.5" id="Line-8"></path>
                <path d="M160.76087,3.5 L160.76087,446.5" id="Line-9"></path>
                <path d="M180.021739,10.5 L180.021739,453.5" id="Line-10"></path>
                <path d="M199.282609,6.5 L199.282609,449.5" id="Line-11"></path>
                <path d="M218.543478,6.5 L218.543478,449.5" id="Line-12"></path>
                <path d="M240.5,3.5 L240.5,446.5" id="Line-13"></path>
                <path d="M259.76087,2.5 L259.76087,445.5" id="Line-14"></path>
                <path d="M279.021739,13.5 L279.021739,456.5" id="Line-15"></path>
                <path d="M298.282609,3.5 L298.282609,446.5" id="Line-16"></path>
                <path d="M319.543478,0.5 L319.543478,443.5" id="Line-17"></path>
                <path d="M160.76087,9.5 L160.76087,452.5" id="Line-18"></path>
                <path d="M338.804348,16.5 L338.804348,459.5" id="Line-19"></path>
                <path d="M358.065217,12.5 L358.065217,455.5" id="Line-20"></path>
                <path d="M378.326087,10.5 L378.326087,453.5" id="Line-21"></path>
            </g>
        </g>
    </g>
</svg>