<?xml version="1.0" encoding="UTF-8" standalone="no"?>
<svg width="400px" height="400px" viewBox="0 0 400 400" version="1.1" xmlns="http://www.w3.org/2000/svg" xmlns:xlink="http://www.w3.org/1999/xlink" xmlns:sketch="http://www.bohemiancoding.com/sketch/ns">
    <!-- Generator: Sketch 3.2.2 (9983) - http://www.bohemiancoding.com/sketch -->
    <title>wash</title>
    <desc>Created with Sketch.</desc>
    <defs></defs>
    <g id="Page-1" stroke="none" stroke-width="1" fill="none" fill-rule="evenodd" sketch:type="MSPage">
        <g id="Oval-1-+-car33" sketch:type="MSLayerGroup">
            <circle id="Oval-1" fill="#607D8B" sketch:type="MSShapeGroup" cx="200" cy="200" r="200"></circle>
            <g id="car33" transform="translate(63.636364, 100.000000)" fill="#FFFFFF" sketch:type="MSShapeGroup">
                <g id="Group">
                    <path d="M202.736364,123.1 C199.9,99.9909091 187.154545,83.0454545 171.381818,83.0454545 L101.345455,83.0454545 C85.5727273,83.0454545 72.8181818,100 69.9818182,123.1 C60.0181818,128.8 54.7727273,139.654545 54.7727273,152.272727 C54.7727273,160.172727 56.9090909,167.345455 60.8727273,173.081818 L60.8727273,198.418182 L94.1363636,198.418182 L94.1363636,185.736364 L178.590909,185.736364 L178.590909,198.418182 L211.845455,198.418182 L211.845455,173.081818 C215.809091,167.363636 217.954545,160.190909 217.954545,152.272727 C217.954545,139.645455 212.690909,128.8 202.736364,123.1 L202.736364,123.1 Z M82.9636364,163.136364 C76.9636364,163.136364 72.0909091,158.290909 72.0909091,152.272727 C72.0909091,146.254545 76.9636364,141.4 82.9636364,141.4 C88.9727273,141.4 93.8454545,146.254545 93.8454545,152.272727 C93.8454545,158.290909 88.9727273,163.136364 82.9636364,163.136364 L82.9636364,163.136364 Z M86.8545455,118.8 C84.6909091,118.8 82.6909091,119.054545 80.7454545,119.354545 C83.8818182,104.190909 92.0363636,93.0272727 101.354545,93.0272727 L171.4,93.0272727 C180.7,93.0272727 188.854545,104.190909 192,119.354545 C190.954545,119.2 189.854545,119.145455 188.754545,119.072727 C188.754545,118.981818 188.790909,118.890909 188.790909,118.809091 C188.790909,109.218182 180.990909,101.418182 171.390909,101.418182 C161.809091,101.418182 154.009091,109.218182 154.009091,118.809091 L86.8545455,118.809091 L86.8545455,118.8 Z M167.954545,161.936364 L104.790909,161.936364 C102.945455,161.936364 101.463636,160.445455 101.463636,158.609091 C101.463636,156.781818 102.954545,155.290909 104.790909,155.290909 L167.954545,155.290909 C169.790909,155.290909 171.272727,156.781818 171.272727,158.609091 C171.272727,160.445455 169.781818,161.936364 167.954545,161.936364 L167.954545,161.936364 Z M167.954545,152.418182 L104.790909,152.418182 C102.945455,152.418182 101.463636,150.927273 101.463636,149.090909 C101.463636,147.254545 102.954545,145.763636 104.790909,145.763636 L167.954545,145.763636 C169.790909,145.763636 171.272727,147.254545 171.272727,149.090909 C171.272727,150.927273 169.781818,152.418182 167.954545,152.418182 L167.954545,152.418182 Z M160.654545,118.8 C160.654545,112.890909 165.472727,108.063636 171.4,108.063636 C177.309091,108.063636 182.136364,112.881818 182.136364,118.8 L160.654545,118.8 L160.654545,118.8 Z M189.763636,163.136364 C183.754545,163.136364 178.881818,158.290909 178.881818,152.272727 C178.881818,146.254545 183.754545,141.4 189.763636,141.4 C195.763636,141.4 200.636364,146.254545 200.636364,152.272727 C200.618182,158.290909 195.763636,163.136364 189.763636,163.136364 L189.763636,163.136364 Z" id="Shape"></path>
                    <rect id="Rectangle-path" x="54.7727273" y="0.218181818" width="163.181818" height="13.3"></rect>
                    <g transform="translate(0.000000, 3.000000)" id="Shape">
                        <path d="M127.390909,48.7090909 C127.390909,53.6636364 131.4,57.6909091 136.363636,57.6909091 C141.318182,57.6909091 145.327273,53.6727273 145.327273,48.7090909 C145.327273,43.7454545 136.363636,28.0181818 136.363636,28.0181818 C136.363636,28.0181818 127.390909,43.7545455 127.390909,48.7090909 L127.390909,48.7090909 Z"></path>
                        <path d="M100.363636,33.8818182 C100.363636,38.8363636 104.372727,42.8545455 109.345455,42.8545455 C114.3,42.8545455 118.327273,38.8363636 118.327273,33.8818182 C118.327273,28.9090909 109.345455,13.1727273 109.345455,13.1727273 C109.345455,13.1727273 100.363636,28.9 100.363636,33.8818182 L100.363636,33.8818182 Z"></path>
                        <path d="M154.4,33.8818182 C154.4,38.8363636 158.409091,42.8545455 163.381818,42.8545455 C168.336364,42.8545455 172.354545,38.8363636 172.354545,33.8818182 C172.354545,28.9090909 163.381818,13.1727273 163.381818,13.1727273 C163.381818,13.1727273 154.4,28.9 154.4,33.8818182 L154.4,33.8818182 Z"></path>
                        <path d="M272.727273,88.8090909 L272.727273,75.4909091 L254.981818,75.4909091 L254.981818,0.554545455 L17.7454545,0.554545455 L17.7454545,75.4909091 L0,75.4909091 L0,88.8090909 L17.7454545,88.8090909 L17.7454545,90.9363636 L0,90.9363636 L0,104.227273 L17.7454545,104.227273 L17.7454545,106.345455 L0,106.345455 L0,119.645455 L17.7454545,119.645455 L17.7454545,121.781818 L0,121.781818 L0,135.081818 L17.7454545,135.081818 L17.7454545,137.2 L0,137.2 L0,150.5 L17.7454545,150.5 L17.7454545,152.627273 L0,152.627273 L0,165.927273 L17.7454545,165.927273 L17.7454545,168.036364 L0,168.036364 L0,181.345455 L17.7454545,181.345455 L17.7454545,183.481818 L0,183.481818 L0,196.781818 L42.1363636,196.781818 L42.1363636,183.481818 L24.3909091,183.481818 L24.3909091,181.345455 L42.1363636,181.345455 L42.1363636,168.036364 L24.3909091,168.036364 L24.3909091,165.927273 L42.1363636,165.927273 L42.1363636,152.627273 L24.3909091,152.627273 L24.3909091,150.5 L42.1363636,150.5 L42.1363636,137.2 L24.3909091,137.2 L24.3909091,135.081818 L42.1363636,135.081818 L42.1363636,121.781818 L24.3909091,121.781818 L24.3909091,119.645455 L42.1363636,119.645455 L42.1363636,106.345455 L24.3909091,106.345455 L24.3909091,104.227273 L42.1363636,104.227273 L42.1363636,90.9363636 L24.3909091,90.9363636 L24.3909091,88.8090909 L42.1363636,88.8090909 L42.1363636,75.4909091 L24.3909091,75.4909091 L24.3909091,7.20909091 L248.327273,7.20909091 L248.327273,75.4909091 L230.590909,75.4909091 L230.590909,88.8090909 L248.327273,88.8090909 L248.327273,90.9363636 L230.590909,90.9363636 L230.590909,104.227273 L248.327273,104.227273 L248.327273,106.345455 L230.590909,106.345455 L230.590909,119.645455 L248.327273,119.645455 L248.327273,121.781818 L230.590909,121.781818 L230.590909,135.081818 L248.327273,135.081818 L248.327273,137.2 L230.590909,137.2 L230.590909,150.5 L248.327273,150.5 L248.327273,152.627273 L230.590909,152.627273 L230.590909,165.927273 L248.327273,165.927273 L248.327273,168.036364 L230.590909,168.036364 L230.590909,181.345455 L248.327273,181.345455 L248.327273,183.481818 L230.590909,183.481818 L230.590909,196.781818 L272.727273,196.781818 L272.727273,183.481818 L254.981818,183.481818 L254.981818,181.345455 L272.727273,181.345455 L272.727273,168.036364 L254.981818,168.036364 L254.981818,165.927273 L272.727273,165.927273 L272.727273,152.627273 L254.981818,152.627273 L254.981818,150.5 L272.727273,150.5 L272.727273,137.2 L254.981818,137.2 L254.981818,135.081818 L272.727273,135.081818 L272.727273,121.781818 L254.981818,121.781818 L254.981818,119.645455 L272.727273,119.645455 L272.727273,106.345455 L254.981818,106.345455 L254.981818,104.227273 L272.727273,104.227273 L272.727273,90.9363636 L254.981818,90.9363636 L254.981818,88.8090909 L272.727273,88.8090909 Z"></path>
                    </g>
                </g>
            </g>
        </g>
        <g id="Group-+-Group-2" sketch:type="MSLayerGroup" transform="translate(-31.000000, -30.000000)" stroke-linecap="square" stroke="#FFFFFF">
            <g id="Group" transform="translate(41.000000, 0.000000)" sketch:type="MSShapeGroup">
                <path d="M1.5,9.5 L1.5,452.5" id="Line"></path>
                <path d="M21.5,9.5 L21.5,452.5" id="Line-2"></path>
                <path d="M41.5,11.5 L41.5,454.5" id="Line-3"></path>
                <path d="M60.7608696,10.5 L60.7608696,453.5" id="Line-4"></path>
                <path d="M80.0217391,9.5 L80.0217391,452.5" id="Line-5"></path>
                <path d="M99.2826087,10.5 L99.2826087,453.5" id="Line-6"></path>
                <path d="M141.5,9.5 L141.5,452.5" id="Line-7"></path>
                <path d="M119.543478,9.5 L119.543478,452.5" id="Line-8"></path>
                <path d="M160.76087,3.5 L160.76087,446.5" id="Line-9"></path>
                <path d="M180.021739,10.5 L180.021739,453.5" id="Line-10"></path>
                <path d="M199.282609,6.5 L199.282609,449.5" id="Line-11"></path>
                <path d="M218.543478,6.5 L218.543478,449.5" id="Line-12"></path>
                <path d="M240.5,3.5 L240.5,446.5" id="Line-13"></path>
                <path d="M259.76087,2.5 L259.76087,445.5" id="Line-14"></path>
                <path d="M279.021739,13.5 L279.021739,456.5" id="Line-15"></path>
                <path d="M298.282609,3.5 L298.282609,446.5" id="Line-16"></path>
                <path d="M319.543478,0.5 L319.543478,443.5" id="Line-17"></path>
                <path d="M160.76087,9.5 L160.76087,452.5" id="Line-18"></path>
                <path d="M338.804348,16.5 L338.804348,459.5" id="Line-19"></path>
                <path d="M358.065217,12.5 L358.065217,455.5" id="Line-20"></path>
                <path d="M378.326087,10.5 L378.326087,453.5" id="Line-21"></path>
            </g>
            <g id="Group-2" transform="translate(231.000000, 230.000000) rotate(270.000000) translate(-231.000000, -230.000000) translate(41.000000, 0.000000)" sketch:type="MSShapeGroup">
                <path d="M1.5,9.5 L1.5,452.5" id="Line"></path>
                <path d="M21.5,9.5 L21.5,452.5" id="Line-2"></path>
                <path d="M41.5,11.5 L41.5,454.5" id="Line-3"></path>
                <path d="M60.7608696,10.5 L60.7608696,453.5" id="Line-4"></path>
                <path d="M80.0217391,9.5 L80.0217391,452.5" id="Line-5"></path>
                <path d="M99.2826087,10.5 L99.2826087,453.5" id="Line-6"></path>
                <path d="M141.5,9.5 L141.5,452.5" id="Line-7"></path>
                <path d="M119.543478,9.5 L119.543478,452.5" id="Line-8"></path>
                <path d="M160.76087,3.5 L160.76087,446.5" id="Line-9"></path>
                <path d="M180.021739,10.5 L180.021739,453.5" id="Line-10"></path>
                <path d="M199.282609,6.5 L199.282609,449.5" id="Line-11"></path>
                <path d="M218.543478,6.5 L218.543478,449.5" id="Line-12"></path>
                <path d="M240.5,3.5 L240.5,446.5" id="Line-13"></path>
                <path d="M259.76087,2.5 L259.76087,445.5" id="Line-14"></path>
                <path d="M279.021739,13.5 L279.021739,456.5" id="Line-15"></path>
                <path d="M298.282609,3.5 L298.282609,446.5" id="Line-16"></path>
                <path d="M319.543478,0.5 L319.543478,443.5" id="Line-17"></path>
                <path d="M160.76087,9.5 L160.76087,452.5" id="Line-18"></path>
                <path d="M338.804348,16.5 L338.804348,459.5" id="Line-19"></path>
                <path d="M358.065217,12.5 L358.065217,455.5" id="Line-20"></path>
                <path d="M378.326087,10.5 L378.326087,453.5" id="Line-21"></path>
            </g>
        </g>
    </g>
</svg>